<svg id="图层_1" data-name="图层 1" xmlns="http://www.w3.org/2000/svg" viewBox="0 0 156.03 158.9"><defs><style>.cls-1{fill:#ddd;stroke-miterlimit:10;stroke-width:2px;}.cls-2{}.cls-3{}</style></defs><title>jindianjiansuo</title><path class="cls-1" d="M172.2,108.3c0,3.5-2.4,6.3-5.3,6.3,2.9,0,5.3,2.8,5.3,6.3,0-3.5,2.4-6.3,5.3-6.3C174.6,114.7,172.2,111.8,172.2,108.3Z" transform="translate(-21.5 -20.7)"/><path class="cls-1" d="M32.3,47.6c0,7.1,4.8,12.9,10.8,12.9-6,0-10.8,5.8-10.8,12.9,0-7.1-4.8-12.9-10.8-12.9C27.5,60.5,32.3,54.7,32.3,47.6Z" transform="translate(-21.5 -20.7)"/><path class="cls-1" d="M103.3,79.1H58.8a2.26,2.26,0,0,1-2.3-2.3V75.4a2.26,2.26,0,0,1,2.3-2.3h44.4a2.26,2.26,0,0,1,2.3,2.3v1.4a2.24,2.24,0,0,1-2.2,2.3Z" transform="translate(-21.5 -20.7)"/><path class="cls-1" d="M82.7,95.9H58.8a2.26,2.26,0,0,1-2.3-2.3V92.2a2.26,2.26,0,0,1,2.3-2.3H82.7A2.26,2.26,0,0,1,85,92.2v1.4A2.26,2.26,0,0,1,82.7,95.9Zm-6.4,16.9H58.8a2.26,2.26,0,0,1-2.3-2.3v-1.4a2.26,2.26,0,0,1,2.3-2.3H76.3a2.26,2.26,0,0,1,2.3,2.3v1.4A2.33,2.33,0,0,1,76.3,112.8Z" transform="translate(-21.5 -20.7)"/><path class="cls-1" d="M152,74.9H134.6a7.84,7.84,0,0,1-7.7-8V48.8a2.53,2.53,0,0,1,1.5-2.3,2.33,2.33,0,0,1,2.6.6l22.8,23.7a2.46,2.46,0,0,1,.5,2.7A2.61,2.61,0,0,1,152,74.9ZM130.3,51.4V66.9a4.36,4.36,0,0,0,4.2,4.5h15Z" transform="translate(-21.5 -20.7)"/><path class="cls-1" d="M52.8,20.7c0,4.3-2.9,7.7-6.5,7.7,3.6,0,6.5,3.4,6.5,7.7,0-4.3,2.9-7.7,6.5-7.7C55.7,28.4,52.8,25,52.8,20.7Z" transform="translate(-21.5 -20.7)"/><path class="cls-1" d="M145.6,174.8h-89a9.84,9.84,0,0,1-9.7-10V55.5a9.91,9.91,0,0,1,9.7-10h71.3a2.43,2.43,0,0,1,2.4,2.4V67.6a3.8,3.8,0,0,0,3.7,3.9h19a2.43,2.43,0,0,1,2.4,2.4v90.8a10,10,0,0,1-9.8,10.1ZM56.6,48.9a6.36,6.36,0,0,0-6.2,6.5V164.7a6.36,6.36,0,0,0,6.2,6.5h89a6.36,6.36,0,0,0,6.2-6.5V75H133.9a7.28,7.28,0,0,1-7.2-7.4V48.9Z" transform="translate(-21.5 -20.7)"/><path class="cls-2" d="M129.5,149.3l8.1,8.3" transform="translate(-21.5 -20.7)"/><path class="cls-3" d="M137.6,159.8a2,2,0,0,1-1.6-.7l-8-8.3a2.19,2.19,0,1,1,3.2-3l8,8.3a2.12,2.12,0,0,1-.1,3.1,2.2,2.2,0,0,1-1.5.6Z" transform="translate(-21.5 -20.7)"/><path class="cls-3" d="M154.3,179.6a4.94,4.94,0,0,1-3.4-1.4L134.4,161a4.67,4.67,0,0,1,6.7-6.5l16.5,17.1a4.71,4.71,0,0,1-.1,6.6,4.31,4.31,0,0,1-3.2,1.4Z" transform="translate(-21.5 -20.7)"/><path class="cls-1" d="M113.1,157.1c-15.3,0-27.7-12.8-27.7-28.6s12.4-28.6,27.7-28.6,27.7,12.8,27.7,28.6S128.3,157.1,113.1,157.1Zm0-53.8c-13.3,0-24.2,11.3-24.2,25.1s10.8,25.1,24.2,25.1,24.2-11.3,24.2-25.1S126.4,103.3,113.1,103.3Z" transform="translate(-21.5 -20.7)"/><path class="cls-1" d="M121.5,114.9a2.92,2.92,0,0,1-.9-.2,15.45,15.45,0,0,0-5.2-1.9,1.65,1.65,0,0,1-1.4-2,1.77,1.77,0,0,1,2-1.4,18.21,18.21,0,0,1,6.4,2.3,1.78,1.78,0,0,1,.6,2.4A1.9,1.9,0,0,1,121.5,114.9ZM96.1,130.2a1.69,1.69,0,0,1-1.7-1.7,19.46,19.46,0,0,1,12.3-18.2,1.71,1.71,0,0,1,1.2,3.2,15.41,15.41,0,0,0-8.3,7.6,16.65,16.65,0,0,0-1.7,7.3,1.73,1.73,0,0,1-1.8,1.8Z" transform="translate(-21.5 -20.7)"/><polygon class="cls-1" points="47.5 120.2 51.3 127.9 59.9 129.2 53.7 135.2 55.2 143.7 47.5 139.7 39.8 143.7 41.3 135.2 35.1 129.2 43.7 127.9 47.5 120.2"/></svg>