<svg aria-hidden="true" style="position: absolute; width: 0; height: 0; overflow: hidden;" version="1.1" xmlns="http://www.w3.org/2000/svg" xmlns:xlink="http://www.w3.org/1999/xlink">
<defs>
<symbol id="icon-guanbi" viewBox="0 0 32 32">
<title>guanbi</title>
<path d="M17.171 16.002l14.594-14.594c0.149-0.149 0.241-0.355 0.241-0.582 0-0.455-0.369-0.824-0.824-0.824-0.227 0-0.433 0.092-0.582 0.241l-14.6 14.592-14.594-14.594c-0.148-0.141-0.348-0.228-0.569-0.228-0.455 0-0.824 0.369-0.824 0.824 0 0.221 0.087 0.422 0.229 0.57l-0-0 14.594 14.595-14.594 14.594c-0.141 0.148-0.228 0.348-0.228 0.569 0 0.455 0.369 0.824 0.824 0.824 0.221 0 0.422-0.087 0.57-0.229l-0 0 14.594-14.594 14.594 14.594c0.15 0.157 0.361 0.254 0.595 0.254 0.455 0 0.824-0.369 0.824-0.824 0-0.234-0.098-0.445-0.254-0.595l-0-0z"></path>
</symbol>
<symbol id="icon-tishi" viewBox="0 0 32 32">
<title>tishi</title>
<path d="M16 32c-8.837 0-16-7.163-16-16s7.163-16 16-16c8.837 0 16 7.163 16 16v0c0 8.837-7.163 16-16 16v0zM16 2.285c-7.574 0-13.714 6.14-13.714 13.714s6.14 13.714 13.714 13.714c7.573 0 13.713-6.139 13.714-13.712v-0c0-0 0-0.001 0-0.002 0-7.574-6.14-13.714-13.714-13.714v0zM14.858 22.858h2.286v2.285h-2.286zM16.571 20.571h-1.142c-0.315 0-0.571-0.256-0.571-0.571v0-12.573c0-0.315 0.256-0.571 0.571-0.571v0h1.142c0.315 0 0.571 0.256 0.571 0.571v0 12.573c0 0.315-0.256 0.571-0.571 0.571v0z"></path>
</symbol>
<symbol id="icon-touxiang" viewBox="0 0 31 32">
<title>touxiang</title>
<path d="M6.156 15.174c-0.004-0-0.009-0-0.014-0-0.069 0-0.135 0.013-0.196 0.035l0.004-0.001c0.068-0.021 0.146-0.034 0.226-0.034h0zM29.865 24.62c0.003-0.047 0.009-0.092 0.019-0.134l-0.001 0.005c-0.012 0.033-0.019 0.072-0.019 0.112 0 0.006 0 0.012 0 0.018l-0-0.001zM31.452 7.169v-0.020s-0.014 0.011-0.014 0.020zM29.865 7.169s0-0.018 0-0.029zM30.819 30.905c-0.242-1.773-0.75-3.378-1.486-4.849l0.040 0.089q-0.227-0.44-0.453-0.864v0c-0.744-1.246-1.594-2.322-2.565-3.275l-0.003-0.002q-0.326-0.322-0.68-0.626c-1.565-1.38-3.429-2.464-5.477-3.141l-0.112-0.032c3.012-1.687 5.014-4.857 5.014-8.496 0-5.308-4.262-9.621-9.55-9.704l-0.008-0h-0.242c-5.296 0.081-9.558 4.394-9.558 9.702 0 2.679 1.085 5.104 2.84 6.859l-0-0c0.629 0.629 1.344 1.173 2.125 1.613l0.049 0.025c-2.161 0.709-4.024 1.793-5.606 3.188l0.017-0.015q-0.347 0.304-0.68 0.626c-0.974 0.955-1.824 2.030-2.528 3.203l-0.040 0.072q-0.242 0.424-0.453 0.864c-0.696 1.382-1.204 2.987-1.437 4.679l-0.009 0.080c-0.006 0.039-0.009 0.084-0.009 0.13 0 0.488 0.36 0.891 0.828 0.96l0.005 0.001c0.020 0.001 0.043 0.002 0.066 0.002s0.046-0.001 0.069-0.002l-0.003 0c0.017 0.001 0.037 0.002 0.058 0.002s0.040-0.001 0.061-0.002l-0.003 0c0.394-0.087 0.694-0.405 0.754-0.802l0.001-0.005c0.483-3.141 1.925-5.883 4.012-7.981l-0.001 0.001c2.427-2.501 5.807-4.067 9.552-4.111l0.008-0h0.020c3.746 0.051 7.117 1.615 9.536 4.108l0.003 0.003c2.087 2.098 3.529 4.839 4.001 7.9l0.010 0.080c0.061 0.401 0.36 0.719 0.746 0.806l0.006 0.001c0.017 0.001 0.037 0.002 0.058 0.002s0.041-0.001 0.061-0.002l-0.003 0c0.020 0.001 0.043 0.002 0.066 0.002s0.046-0.001 0.069-0.002l-0.003 0c0.478-0.065 0.843-0.471 0.843-0.962 0-0.046-0.003-0.091-0.009-0.136l0.001 0.005zM15.394 17.468h-0.048c-3.626-0.027-6.849-2.543-7.731-5.918 0-0.036-0.020-0.075-0.029-0.111-0.134-0.519-0.211-1.115-0.211-1.729 0-0.002 0-0.003 0-0.005v0c0-0.621 0.077-1.224 0.222-1.801l-0.011 0.051c0-0.039 0.018-0.075 0.029-0.113 0.886-3.459 4.145-6.208 7.79-6.208h0.041c3.644 0 6.904 2.749 7.79 6.208 0 0.039 0.020 0.075 0.029 0.113 0.134 0.525 0.21 1.128 0.211 1.75v0c0 0.001 0 0.003 0 0.005 0 0.614-0.077 1.21-0.221 1.779l0.011-0.050c0 0.036-0.018 0.075-0.029 0.111-0.882 3.375-4.111 5.893-7.731 5.918z"></path>
</symbol>
<symbol id="icon-weixuanzhong" viewBox="0 0 32 32">
<title>weixuanzhong</title>
<path d="M16 32c-8.837 0-16-7.163-16-16s7.163-16 16-16c8.837 0 16 7.163 16 16v0c0 8.837-7.163 16-16 16v0zM16 1.333c-8.1 0-14.667 6.567-14.667 14.667s6.567 14.667 14.667 14.667c8.1 0 14.667-6.567 14.667-14.667v0c0-8.1-6.567-14.667-14.667-14.667v0z"></path>
</symbol>
<symbol id="icon-xiangshang" viewBox="0 0 73 32">
<title>xiangshang</title>
<path stroke-width="2.4647" stroke-miterlimit="4" stroke-linecap="round" stroke-linejoin="round" d="M1.232 20.005l35.615-18.773 35.327 18.773"></path>
<path stroke-width="2.4647" stroke-miterlimit="4" stroke-linecap="round" stroke-linejoin="round" d="M1.232 30.768l35.615-18.773 35.327 18.773"></path>
</symbol>
<symbol id="icon-xianshi" viewBox="0 0 38 32">
<title>xianshi</title>
<path d="M38.341 18.831l-0.345-0.637c-1.423-2.514-3.217-4.642-5.334-6.391l-0.038-0.031 4.088-2.569c0.229-0.158 0.377-0.419 0.377-0.714 0-0.477-0.387-0.864-0.864-0.864-0.156 0-0.303 0.042-0.43 0.114l0.004-0.002-4.631 2.908c-0.217-0.155-0.433-0.305-0.656-0.455-1.696-1.163-3.652-2.127-5.742-2.79l-0.158-0.043 2.007-6.215c0.031-0.085 0.049-0.183 0.049-0.285 0-0.476-0.386-0.862-0.862-0.862-0.387 0-0.714 0.255-0.823 0.606l-0.002 0.006-2.047 6.33c-1.117-0.251-2.401-0.394-3.718-0.394s-2.6 0.144-3.835 0.416l0.118-0.022-2.039-6.33c-0.111-0.357-0.438-0.612-0.825-0.612-0.476 0-0.862 0.386-0.862 0.862 0 0.102 0.018 0.2 0.050 0.291l-0.002-0.006 2.012 6.223c-2.243 0.709-4.194 1.673-5.962 2.885l0.076-0.049c-0.222 0.147-0.439 0.3-0.656 0.455l-4.642-2.919c-0.13-0.084-0.289-0.134-0.46-0.134-0.304 0-0.572 0.159-0.723 0.398l-0.002 0.004c-0.083 0.131-0.132 0.29-0.132 0.46 0 0.305 0.158 0.574 0.396 0.728l0.003 0.002 4.091 2.569c-1.834 1.526-3.4 3.29-4.673 5.261l-0.055 0.090q-0.345 0.535-0.647 1.097l-0.123 0.225-0.195 0.364c-0.075 0.131-0.12 0.288-0.12 0.455s0.044 0.324 0.122 0.459l-0.002-0.005 0.359 0.626c1.64 3.023 4.281 5.86 7.46 7.987 3.575 2.408 7.492 3.666 11.288 3.666s7.711-1.268 11.288-3.666c3.173-2.127 5.83-4.966 7.492-7.995l0.345-0.637c0.061-0.12 0.097-0.261 0.097-0.411 0-0.166-0.044-0.321-0.121-0.455l0.002 0.005zM36.399 19.462c-2.9 5.322-9.728 10.702-17.172 10.702s-14.272-5.386-17.153-10.702v-0.016l-0.104-0.182 0.104-0.182v-0.016q0.268-0.471 0.551-0.942c3.16-4.987 9.611-9.742 16.602-9.742 7.454 0 14.272 5.386 17.153 10.702v0.016l0.078 0.136h0.024l0.013 0.027zM19.227 12.329c-0.010-0-0.023-0-0.035-0-3.833 0-6.94 3.107-6.94 6.94s3.107 6.94 6.94 6.94c3.833 0 6.94-3.107 6.94-6.94v0c0-0.006 0-0.012 0-0.019 0-3.817-3.090-6.913-6.905-6.922h-0.001zM19.227 24.369c-0.008 0-0.017 0-0.027 0-2.822 0-5.11-2.288-5.11-5.11s2.288-5.11 5.11-5.11c2.822 0 5.11 2.288 5.11 5.11v0c0 0.005 0 0.010 0 0.016 0 2.811-2.274 5.092-5.083 5.102h-0.001z"></path>
</symbol>
<symbol id="icon-xiayibu" viewBox="0 0 16 32">
<title>xiayibu</title>
<path d="M1.014 32c-0.027 0.004-0.058 0.006-0.090 0.006-0.197 0-0.377-0.078-0.508-0.205l0 0c-0.186-0.175-0.302-0.423-0.302-0.698s0.116-0.523 0.302-0.697l0.001-0 13.159-14.355-13.358-14.355c-0.399-0.399-0.199-0.997 0.199-1.396 0.175-0.186 0.423-0.302 0.698-0.302s0.523 0.116 0.697 0.302l0 0.001 13.956 14.953c0.186 0.175 0.302 0.423 0.302 0.698s-0.116 0.523-0.302 0.697l-0.001 0-13.956 14.953c-0.212 0.203-0.485 0.346-0.789 0.397l-0.009 0.001z"></path>
</symbol>
<symbol id="icon-xuanzhong" viewBox="0 0 32 32">
<title>xuanzhong</title>
<path d="M16 32.002c-8.836 0-15.998-7.163-15.998-15.998s7.163-15.998 15.998-15.998c8.836 0 15.998 7.163 15.998 15.998v0c-0.013 8.831-7.168 15.986-15.997 15.998h-0.001zM16 1.062c-8.249 0-14.936 6.687-14.936 14.936s6.687 14.936 14.936 14.936c8.249 0 14.936-6.687 14.936-14.936v0c-0.010-8.245-6.691-14.927-14.935-14.936h-0.001z"></path>
<path d="M9.95 15.869c0 3.61 2.927 6.537 6.537 6.537s6.537-2.927 6.537-6.537c0-3.61-2.927-6.537-6.537-6.537v0c-3.61 0-6.537 2.927-6.537 6.537v0z"></path>
</symbol>
<symbol id="icon-zhankai" viewBox="0 0 32 32">
<title>zhankai</title>
<path fill="none" stroke="#000" stroke-width="2.9224" stroke-miterlimit="4" stroke-linecap="round" stroke-linejoin="round" style="stroke: var(--color1, #000)" d="M1.461 1.461h28.952"></path>
<path fill="none" stroke="#000" stroke-width="2.9224" stroke-miterlimit="4" stroke-linecap="round" stroke-linejoin="round" style="stroke: var(--color1, #000)" d="M15.948 11.126h14.466"></path>
<path fill="none" stroke="#000" stroke-width="2.9224" stroke-miterlimit="4" stroke-linecap="round" stroke-linejoin="round" style="stroke: var(--color1, #000)" d="M15.948 20.811h14.466"></path>
<path fill="none" stroke="#000" stroke-width="2.9224" stroke-miterlimit="4" stroke-linecap="round" stroke-linejoin="round" style="stroke: var(--color1, #000)" d="M1.461 30.539h28.952"></path>
<path d="M8.099 15.342l-6.346-4.551c-0.149-0.107-0.335-0.172-0.536-0.172-0.51 0-0.924 0.413-0.925 0.923v9.080c0.001 0.51 0.415 0.923 0.925 0.923 0.201 0 0.387-0.064 0.539-0.173l-0.003 0.002 6.367-4.551c0.227-0.167 0.373-0.433 0.373-0.734 0-0.309-0.155-0.582-0.391-0.746l-0.003-0.002z"></path>
</symbol>
<symbol id="icon-zhengque" viewBox="0 0 32 32">
<title>zhengque</title>
<path d="M16.001 32.002c-0.008 0-0.018 0-0.028 0-2.235 0-4.362-0.464-6.289-1.3l0.102 0.040c-3.849-1.67-6.856-4.677-8.485-8.421l-0.040-0.104c-0.799-1.834-1.264-3.97-1.264-6.215s0.465-4.381 1.303-6.318l-0.040 0.103c1.669-3.849 4.676-6.856 8.421-8.485l0.104-0.040c1.834-0.798 3.97-1.263 6.215-1.263s4.381 0.465 6.318 1.303l-0.103-0.040c3.849 1.669 6.856 4.676 8.485 8.421l0.040 0.104c0.798 1.834 1.263 3.97 1.263 6.215s-0.465 4.381-1.303 6.318l0.040-0.103c-1.67 3.849-4.677 6.856-8.421 8.485l-0.104 0.040c-1.825 0.797-3.951 1.261-6.186 1.261-0.010 0-0.021 0-0.031-0h0.002zM16.001 2.002c-0.010-0-0.021-0-0.032-0-1.951 0-3.808 0.405-5.492 1.135l0.089-0.034c-3.369 1.463-6 4.096-7.427 7.373l-0.035 0.091c-0.698 1.603-1.104 3.471-1.104 5.434s0.406 3.831 1.139 5.524l-0.035-0.090c1.463 3.368 4.094 6 7.371 7.427l0.091 0.035c1.603 0.698 3.471 1.104 5.434 1.104s3.831-0.406 5.524-1.139l-0.090 0.035c3.368-1.463 6-4.094 7.427-7.371l0.035-0.091c0.698-1.603 1.104-3.471 1.104-5.434s-0.406-3.831-1.139-5.524l0.035 0.090c-1.463-3.368-4.094-6-7.371-7.427l-0.091-0.035c-1.597-0.698-3.458-1.104-5.414-1.104-0.007 0-0.014 0-0.022 0h0.001zM14.124 21.561c-0.211-0.002-0.402-0.086-0.544-0.22l0 0-5.676-5.245c-0.14-0.144-0.226-0.341-0.226-0.558 0-0.444 0.36-0.803 0.803-0.803 0.195 0 0.374 0.070 0.513 0.185l-0.001-0.001 5.111 4.719 9.075-9.071c0.14-0.123 0.325-0.198 0.528-0.198 0.444 0 0.803 0.36 0.803 0.803 0 0.203-0.075 0.388-0.199 0.529l0.001-0.001-9.621 9.625c-0.145 0.144-0.344 0.233-0.565 0.233-0.001 0-0.002 0-0.003 0h0z"></path>
</symbol>
</defs>
</svg>
