<svg id="图层_1" data-name="图层 1" xmlns="http://www.w3.org/2000/svg" viewBox="0 0 138.75 141.19"><title>touxiang</title><path d="M60.45,96.51a2.46,2.46,0,0,0-.91.15,3.5,3.5,0,0,1,1-.15Zm104.61,41.68a3.38,3.38,0,0,1,.08-.57A1.54,1.54,0,0,0,165.06,138.19Zm7-77a.11.11,0,0,0,0,0v-.09S172,61.15,172,61.19Zm-7,0a.09.09,0,0,0,0,0s0-.08,0-.13Zm4.21,104.73a68,68,0,0,0-6.38-21q-1-1.94-2-3.81h0a70.51,70.51,0,0,0-11.33-14.46h0q-1.44-1.42-3-2.76a69.81,69.81,0,0,0-24.66-14,42.82,42.82,0,0,0-20.05-80.3h-1.07a42.81,42.81,0,0,0-29.64,73.07,43.16,43.16,0,0,0,9.59,7.23,69.81,69.81,0,0,0-24.66,14q-1.53,1.34-3,2.76A70.52,70.52,0,0,0,41.74,141.1q-1.07,1.87-2,3.81a68,68,0,0,0-6.38,21A4.28,4.28,0,0,0,37,170.72a4.44,4.44,0,0,0,.58,0,4.08,4.08,0,0,0,.51,0,4.28,4.28,0,0,0,3.33-3.56,63.22,63.22,0,0,1,17.7-35.21,59.71,59.71,0,0,1,42.18-18.14h.09a59.72,59.72,0,0,1,42.09,18.14,63.22,63.22,0,0,1,17.7,35.21,4.28,4.28,0,0,0,3.32,3.56h0a4.08,4.08,0,0,0,.51,0,4.44,4.44,0,0,0,.58,0A4.28,4.28,0,0,0,169.27,165.9Zm-68.06-59.29H101c-16-.12-30.22-11.22-34.11-26.11,0-.16-.09-.33-.13-.49a31.76,31.76,0,0,1-.93-7.65,32.63,32.63,0,0,1,.93-7.72c0-.17.08-.33.13-.5,3.91-15.26,18.29-27.39,34.37-27.39h.18c16.08,0,30.46,12.13,34.37,27.39,0,.17.09.33.13.5a32.63,32.63,0,0,1,.93,7.72,31.76,31.76,0,0,1-.93,7.65c0,.16-.08.33-.13.49-3.89,14.89-18.14,26-34.11,26.11Z" transform="translate(-33.29 -29.56)"/></svg>