<svg id="图层_1" data-name="图层 1" xmlns="http://www.w3.org/2000/svg" viewBox="0 0 143.71 119.6"><title>xianshi</title><path d="M171.81,112.11l-1.29-2.38a84.37,84.37,0,0,0-20.08-24l15.28-9.6a3.23,3.23,0,0,0-3.41-5.48L145,81.52c-.81-.58-1.62-1.14-2.45-1.7A83.28,83.28,0,0,0,120.5,69.23L128,46a3.22,3.22,0,1,0-6.12-2l-7.65,23.66a66.22,66.22,0,0,0-27.79,0L78.82,44a3.22,3.22,0,1,0-6.12,2l7.52,23.26a83.33,83.33,0,0,0-22,10.6c-.83.55-1.64,1.12-2.45,1.7L38.42,70.65a3.2,3.2,0,0,0-4.43,1,3.24,3.24,0,0,0,1,4.45l15.29,9.6a86.06,86.06,0,0,0-17.67,20q-1.29,2-2.42,4.1l-.46.84L29,112a3.45,3.45,0,0,0,0,3.4l1.34,2.34c6.13,11.3,16,21.9,27.88,29.85,13.36,9,28,13.7,42.19,13.7s28.82-4.74,42.19-13.7c11.86-7.95,21.79-18.56,28-29.88l1.29-2.38A3.43,3.43,0,0,0,171.81,112.11Zm-7.26,2.36c-10.84,19.89-36.36,40-64.18,40s-53.34-20.13-64.11-40l0-.06-.39-.68.39-.68,0-.06q1-1.76,2.06-3.52c11.81-18.64,35.92-36.41,62.05-36.41,27.86,0,53.34,20.13,64.11,40l0,.06.29.51h.09l.05.1ZM100.37,87.81a25.94,25.94,0,1,0,25.81,25.94A25.87,25.87,0,0,0,100.37,87.81Zm0,45a19.1,19.1,0,1,1,19-19.1A19.07,19.07,0,0,1,100.37,132.84Z" transform="translate(-28.51 -41.73)"/></svg>