<svg id="图层_1" data-name="图层 1" xmlns="http://www.w3.org/2000/svg" viewBox="0 0 180.56 189"><defs><style>.cls-1{fill:none;stroke:#000;stroke-miterlimit:10;stroke-width:4px;}</style></defs><title>xiaoyingjiansuo</title><polygon class="cls-1" points="48.31 8.05 58.61 47.15 91.51 59.05 58.81 71.25 48.91 110.55 38.61 71.35 5.81 59.55 38.51 47.35 48.31 8.05"/><polygon class="cls-1" points="131.31 15.95 144.11 41.85 168.91 45.45 147.71 58.75 146.41 87.65 133.61 61.65 108.81 58.15 130.01 44.85 131.31 15.95"/><polygon class="cls-1" points="36.71 121.75 42.51 138.25 57.01 142.15 43.41 148.55 40.51 165.75 34.81 149.25 20.21 145.35 33.91 138.95 36.71 121.75"/><path class="cls-1" d="M81.3,102.1l19.4-19.4a10.74,10.74,0,0,1,15.2,0L145,112l-34.5,34.5L81.2,117.2a10.71,10.71,0,0,1,.1-15.1Z" transform="translate(-6.19 0.85)"/><path class="cls-1" d="M151.8,118.8l-34.5,34.5L147,183a10.74,10.74,0,0,0,15.2,0l19.4-19.4a10.74,10.74,0,0,0,0-15.2l-29.8-29.6Z" transform="translate(-6.19 0.85)"/><rect class="cls-1" x="92.38" y="93.94" width="34.5" height="34.5" transform="translate(-52.7 110.91) rotate(-44.99)"/></svg>