<svg id="图层_1" data-name="图层 1" xmlns="http://www.w3.org/2000/svg" viewBox="0 0 199.62 199.62"><title>xiayibu</title><path d="M100,9.45A90.74,90.74,0,1,1,9.26,100.19,90.84,90.84,0,0,1,100,9.45m0-9.07a99.81,99.81,0,1,0,99.81,99.81A99.81,99.81,0,0,0,100,.38Z" transform="translate(-0.19 -0.38)"/><path d="M143.93,105.11A4.53,4.53,0,0,1,141,104L83.59,55.68a4.54,4.54,0,0,1,5.85-6.94l57.43,48.37a4.54,4.54,0,0,1-2.93,8Z" transform="translate(-0.19 -0.38)"/><path d="M86.5,153.47a4.54,4.54,0,0,1-2.93-8L141,97.11a4.54,4.54,0,0,1,5.84,6.94L89.42,152.4A4.52,4.52,0,0,1,86.5,153.47Z" transform="translate(-0.19 -0.38)"/></svg>