<svg id="图层_1" data-name="图层 1" xmlns="http://www.w3.org/2000/svg" viewBox="0 0 200 199.98"><title>yishu</title><path d="M74.2,28.23A15,15,0,1,0,89,43.26,15,15,0,0,0,74.2,28.23Zm-31,41.14A15,15,0,1,0,58,84.38a14.8,14.8,0,0,0-14.58-15ZM99.68,0C44.55,0,0,45,0,100S44.77,200,99.68,200a22.27,22.27,0,0,0,22.17-22.15c0-5.45-1.92-10.86-5.45-14.4-1.92-2.32-2.45-3.94-2.45-5.85a9,9,0,0,1,9-9h18.66c32.2,0,58.43-26.54,58.43-58.92C199.25,40.26,154.35,0,99.68,0Zm43.6,136.71h-19.4A23,23,0,0,0,101,159.6c0,6.82,3.09,11.51,5.34,14.6l.54.86a8.8,8.8,0,0,1,2,5.65A9.34,9.34,0,0,1,99.58,190c-49.68,0-89.77-40.48-89.77-90S50.22,10,99.57,10s89.86,35.91,90.83,79.38C190.4,115.38,169.08,136.71,143.28,136.71ZM125.35,28.23a15,15,0,1,0,14.83,15,15,15,0,0,0-14.83-15Zm31,41.14a15,15,0,1,0,14.82,15,14.82,14.82,0,0,0-14.61-15h-.2Z"/></svg>