<svg id="图层_1" data-name="图层 1" xmlns="http://www.w3.org/2000/svg" viewBox="0 0 145.45 145.45"><defs><style>.cls-1{fill:#303030;}</style></defs><title>zhengque</title><path class="cls-1" d="M100,172.73A71.87,71.87,0,0,1,71.75,167,73.43,73.43,0,0,1,33,128.25a72.34,72.34,0,0,1,0-56.5A73.39,73.39,0,0,1,71.75,33a72.38,72.38,0,0,1,56.5,0A73.39,73.39,0,0,1,167,71.75a72.38,72.38,0,0,1,0,56.5A73.43,73.43,0,0,1,128.25,167,71.85,71.85,0,0,1,100,172.73Zm0-136.36a62.79,62.79,0,0,0-24.7,5A64.33,64.33,0,0,0,41.38,75.3a63.3,63.3,0,0,0,0,49.4A64.33,64.33,0,0,0,75.3,158.62a63.3,63.3,0,0,0,49.4,0,64.33,64.33,0,0,0,33.92-33.92,63.3,63.3,0,0,0,0-49.4A64.33,64.33,0,0,0,124.7,41.38,62.82,62.82,0,0,0,100,36.36Zm-8.53,88.9a3.64,3.64,0,0,1-2.47-1l-25.8-23.84a3.65,3.65,0,0,1,4.95-5.35l23.23,21.45L132.63,75.3a3.65,3.65,0,0,1,5.15,5.15L94.05,124.2A3.64,3.64,0,0,1,91.47,125.26Z" transform="translate(-27.27 -27.27)"/></svg>