<svg aria-hidden="true" style="position: absolute; width: 0; height: 0; overflow: hidden;" version="1.1" xmlns="http://www.w3.org/2000/svg" xmlns:xlink="http://www.w3.org/1999/xlink">
<defs>
<symbol id="icon-fanhuidingbu" viewBox="0 0 68 32">
<title>fanhuidingbu</title>
<path stroke-width="4.6043" stroke-miterlimit="4" stroke-linecap="round" stroke-linejoin="round" d="M2.302 29.698l32.345-27.396 30.58 27.396"></path>
</symbol>
<symbol id="icon-guanbi" viewBox="0 0 32 32">
<title>guanbi</title>
<path d="M17.171 16.002l14.594-14.594c0.149-0.149 0.241-0.355 0.241-0.582 0-0.455-0.369-0.824-0.824-0.824-0.227 0-0.433 0.092-0.582 0.241l-14.6 14.592-14.594-14.594c-0.148-0.141-0.348-0.228-0.569-0.228-0.455 0-0.824 0.369-0.824 0.824 0 0.221 0.087 0.422 0.229 0.57l-0-0 14.594 14.595-14.594 14.594c-0.141 0.148-0.228 0.348-0.228 0.569 0 0.455 0.369 0.824 0.824 0.824 0.221 0 0.422-0.087 0.57-0.229l-0 0 14.594-14.594 14.594 14.594c0.15 0.157 0.361 0.254 0.595 0.254 0.455 0 0.824-0.369 0.824-0.824 0-0.234-0.098-0.445-0.254-0.595l-0-0z"></path>
</symbol>
<symbol id="icon-jindianjiansuo" viewBox="0 0 31 32">
<title>jindianjiansuo</title>
<path fill="none" stroke="#2d2d2d" stroke-width="0.4028" stroke-miterlimit="10" stroke-linecap="butt" stroke-linejoin="miter" style="stroke: var(--color1, #2d2d2d)" d="M30.349 17.641c0 0.705-0.483 1.269-1.067 1.269 0.584 0 1.067 0.564 1.067 1.269 0-0.705 0.483-1.269 1.067-1.269-0.584 0.020-1.067-0.564-1.067-1.269z"></path>
<path fill="none" stroke="#2d2d2d" stroke-width="0.4028" stroke-miterlimit="10" stroke-linecap="butt" stroke-linejoin="miter" style="stroke: var(--color1, #2d2d2d)" d="M2.175 5.417c0 1.43 0.967 2.598 2.175 2.598-1.208 0-2.175 1.168-2.175 2.598 0-1.43-0.967-2.598-2.175-2.598 1.208 0 2.175-1.168 2.175-2.598z"></path>
<path fill="none" stroke="#2d2d2d" stroke-width="0.4028" stroke-miterlimit="10" stroke-linecap="butt" stroke-linejoin="miter" style="stroke: var(--color1, #2d2d2d)" d="M16.473 11.761h-8.962c-0.002 0-0.005 0-0.008 0-0.251 0-0.455-0.204-0.455-0.455 0-0.003 0-0.006 0-0.009v0-0.282c-0-0.002-0-0.005-0-0.008 0-0.251 0.204-0.455 0.455-0.455 0.003 0 0.006 0 0.009 0h8.941c0.002-0 0.005-0 0.008-0 0.251 0 0.455 0.204 0.455 0.455 0 0.003-0 0.006-0 0.009v-0 0.282c0 0.004 0 0.008 0 0.012 0 0.246-0.198 0.447-0.443 0.451h-0z"></path>
<path fill="none" stroke="#2d2d2d" stroke-width="0.4028" stroke-miterlimit="10" stroke-linecap="butt" stroke-linejoin="miter" style="stroke: var(--color1, #2d2d2d)" d="M12.325 15.144h-4.813c-0.002 0-0.005 0-0.008 0-0.251 0-0.455-0.204-0.455-0.455 0-0.003 0-0.006 0-0.009v0-0.282c-0-0.002-0-0.005-0-0.008 0-0.251 0.204-0.455 0.455-0.455 0.003 0 0.006 0 0.009 0h4.813c0.002-0 0.005-0 0.008-0 0.251 0 0.455 0.204 0.455 0.455 0 0.003-0 0.006-0 0.009v-0 0.282c0 0.002 0 0.005 0 0.008 0 0.251-0.204 0.455-0.455 0.455-0.003 0-0.006-0-0.009-0h0zM11.036 18.547h-3.524c-0.002 0-0.005 0-0.008 0-0.251 0-0.455-0.204-0.455-0.455 0-0.003 0-0.006 0-0.009v0-0.282c-0-0.002-0-0.005-0-0.008 0-0.251 0.204-0.455 0.455-0.455 0.003 0 0.006 0 0.009 0h3.524c0.002-0 0.005-0 0.008-0 0.251 0 0.455 0.204 0.455 0.455 0 0.003-0 0.006-0 0.009v-0 0.282c-0.003 0.254-0.209 0.46-0.463 0.463h-0z"></path>
<path fill="none" stroke="#2d2d2d" stroke-width="0.4028" stroke-miterlimit="10" stroke-linecap="butt" stroke-linejoin="miter" style="stroke: var(--color1, #2d2d2d)" d="M26.281 10.915h-3.504c-0.86-0.016-1.551-0.716-1.551-1.579 0-0.011 0-0.023 0-0.034l-0 0.002v-3.645c0.001-0.205 0.123-0.382 0.299-0.462l0.003-0.001c0.052-0.021 0.112-0.034 0.175-0.034 0.138 0 0.262 0.060 0.348 0.154l0 0 4.592 4.773c0.088 0.089 0.142 0.212 0.142 0.347 0 0.071-0.015 0.139-0.042 0.2l0.001-0.003c-0.089 0.168-0.263 0.281-0.463 0.282h-0zM21.911 6.183v3.121c-0 0.009-0 0.019-0 0.029 0 0.474 0.375 0.86 0.845 0.877l0.002 0h3.021z"></path>
<path fill="none" stroke="#2d2d2d" stroke-width="0.4028" stroke-miterlimit="10" stroke-linecap="butt" stroke-linejoin="miter" style="stroke: var(--color1, #2d2d2d)" d="M6.303 0c0 0.866-0.584 1.551-1.309 1.551 0.725 0 1.309 0.685 1.309 1.551 0-0.866 0.584-1.551 1.309-1.551-0.725 0-1.309-0.685-1.309-1.551z"></path>
<path fill="none" stroke="#2d2d2d" stroke-width="0.4028" stroke-miterlimit="10" stroke-linecap="butt" stroke-linejoin="miter" style="stroke: var(--color1, #2d2d2d)" d="M24.992 31.033h-17.923c-1.082-0.016-1.954-0.897-1.954-1.981 0-0.011 0-0.023 0-0.034l-0 0.002v-22.011c-0-0.006-0-0.012-0-0.019 0-1.087 0.87-1.972 1.951-1.995l0.002-0h14.359c0.266 0.003 0.48 0.218 0.483 0.483v3.968c-0 0.006-0 0.013-0 0.020 0 0.416 0.331 0.754 0.744 0.765l0.001 0h3.826c0.266 0.003 0.48 0.218 0.483 0.483v18.286c0 0.006 0 0.013 0 0.021 0 1.098-0.879 1.991-1.972 2.013l-0.002 0zM7.069 5.679c-0.694 0.018-1.249 0.584-1.249 1.28 0 0.010 0 0.020 0 0.030l-0-0.002v22.011c-0 0.009-0 0.019-0 0.029 0 0.696 0.555 1.263 1.247 1.28l0.002 0h17.923c0.694-0.018 1.249-0.584 1.249-1.28 0-0.010-0-0.020-0-0.030l0 0.002v-18.064h-3.605c-0.803-0.009-1.45-0.662-1.45-1.466 0-0.009 0-0.017 0-0.026l-0 0.001v-3.766z"></path>
<path fill="#c6c6c6" style="fill: var(--color2, #c6c6c6)" d="M21.75 25.898l1.631 1.672z"></path>
<path fill="#2b2b2b" style="fill: var(--color3, #2b2b2b)" d="M23.381 28.013c-0.005 0-0.010 0-0.016 0-0.122 0-0.232-0.055-0.306-0.141l-0-0.001-1.611-1.671c-0.074-0.079-0.119-0.185-0.119-0.302 0-0.244 0.198-0.442 0.442-0.442 0.127 0 0.241 0.054 0.322 0.139l0 0 1.611 1.672c0.078 0.077 0.126 0.184 0.126 0.303 0 0.128-0.056 0.243-0.146 0.321l-0 0c-0.079 0.074-0.185 0.12-0.302 0.121h-0z"></path>
<path fill="#2b2b2b" style="fill: var(--color3, #2b2b2b)" d="M26.744 32c-0.267-0.003-0.508-0.11-0.685-0.282l0 0-3.323-3.464c-0.151-0.166-0.244-0.388-0.244-0.632 0-0.519 0.421-0.94 0.94-0.94 0.254 0 0.484 0.101 0.653 0.264l-0-0 3.323 3.444c0.162 0.17 0.262 0.4 0.262 0.654 0 0.264-0.108 0.503-0.282 0.675l-0 0c-0.159 0.174-0.387 0.282-0.64 0.282-0.001 0-0.003 0-0.004 0h0z"></path>
<path fill="none" stroke="#2d2d2d" stroke-width="0.4028" stroke-miterlimit="10" stroke-linecap="butt" stroke-linejoin="miter" style="stroke: var(--color1, #2d2d2d)" d="M18.447 27.469c-3.081 0-5.578-2.578-5.578-5.76s2.497-5.76 5.578-5.76 5.578 2.578 5.578 5.76-2.517 5.76-5.578 5.76zM18.447 16.634c-2.678 0-4.873 2.276-4.873 5.055s2.175 5.055 4.873 5.055 4.873-2.276 4.873-5.055-2.195-5.055-4.873-5.055z"></path>
<path fill="none" stroke="#2d2d2d" stroke-width="0.4028" stroke-miterlimit="10" stroke-linecap="butt" stroke-linejoin="miter" style="stroke: var(--color1, #2d2d2d)" d="M20.138 18.97c-0.066-0.004-0.128-0.018-0.185-0.042l0.004 0.001c-0.302-0.18-0.653-0.314-1.028-0.38l-0.019-0.003c-0.164-0.022-0.29-0.161-0.29-0.33 0-0.026 0.003-0.051 0.009-0.075l-0 0.002c0.034-0.164 0.177-0.286 0.349-0.286 0.019 0 0.037 0.001 0.055 0.004l-0.002-0c0.484 0.078 0.918 0.241 1.306 0.472l-0.017-0.009c0.102 0.064 0.169 0.176 0.169 0.304 0 0.066-0.018 0.128-0.049 0.181l0.001-0.002c-0.068 0.095-0.178 0.158-0.302 0.161h-0.001zM15.023 22.052c-0.001 0-0.001 0-0.002 0-0.188 0-0.34-0.152-0.34-0.34 0-0.001 0-0.001 0-0.002v0c-0-0.006-0-0.014-0-0.021 0-1.645 1.014-3.054 2.451-3.635l0.026-0.009c0.032-0.011 0.070-0.018 0.109-0.018 0.19 0 0.344 0.154 0.344 0.344 0 0.142-0.086 0.264-0.209 0.317l-0.002 0.001c-0.737 0.289-1.322 0.829-1.663 1.513l-0.008 0.018c-0.215 0.429-0.341 0.935-0.342 1.47v0c0 0.004 0 0.009 0 0.014 0 0.192-0.156 0.348-0.348 0.348-0.005 0-0.010-0-0.015-0l0.001 0z"></path>
<path fill="none" stroke="#2d2d2d" stroke-width="0.4028" stroke-miterlimit="10" stroke-linecap="butt" stroke-linejoin="miter" style="stroke: var(--color1, #2d2d2d)" d="M9.566 24.206l0.765 1.551 1.732 0.262-1.249 1.208 0.302 1.712-1.551-0.806-1.551 0.806 0.302-1.712-1.249-1.208 1.732-0.262 0.765-1.551z"></path>
</symbol>
<symbol id="icon-maodong" viewBox="0 0 31 32">
<title>maodong</title>
<path fill="none" stroke="#000" stroke-width="0.3936" stroke-miterlimit="4" stroke-linecap="round" stroke-linejoin="round" style="stroke: var(--color4, #000)" d="M30.189 17.437c0 0.689-0.472 1.24-1.043 1.24 0.571 0 1.043 0.551 1.043 1.24 0-0.689 0.472-1.24 1.043-1.24-0.571 0.020-1.043-0.551-1.043-1.24z"></path>
<path fill="none" stroke="#000" stroke-width="0.3936" stroke-miterlimit="4" stroke-linecap="round" stroke-linejoin="round" style="stroke: var(--color4, #000)" d="M2.657 5.491c0 1.397 0.945 2.539 2.125 2.539-1.181 0-2.125 1.141-2.125 2.539 0-1.397-0.945-2.539-2.125-2.539 1.181 0 2.125-1.141 2.125-2.539z"></path>
<path fill="none" stroke="#000" stroke-width="0.3936" stroke-miterlimit="4" stroke-linecap="round" stroke-linejoin="round" style="stroke: var(--color4, #000)" d="M12.576 14.996h-4.704c-0.002 0-0.005 0-0.008 0-0.246 0-0.445-0.199-0.445-0.445 0-0.003 0-0.006 0-0.008v0-0.276c-0-0.002-0-0.005-0-0.008 0-0.246 0.199-0.445 0.445-0.445 0.003 0 0.006 0 0.008 0h4.703c0.002-0 0.005-0 0.008-0 0.246 0 0.445 0.199 0.445 0.445 0 0.003-0 0.006-0 0.008v-0 0.276c0 0.002 0 0.005 0 0.008 0 0.246-0.199 0.445-0.445 0.445-0.003 0-0.006-0-0.008-0h0zM11.316 18.322h-3.444c-0.002 0-0.005 0-0.008 0-0.246 0-0.445-0.199-0.445-0.445 0-0.003 0-0.006 0-0.008v0-0.276c-0-0.002-0-0.005-0-0.008 0-0.246 0.199-0.445 0.445-0.445 0.003 0 0.006 0 0.008 0h3.444c0.002-0 0.005-0 0.008-0 0.246 0 0.445 0.199 0.445 0.445 0 0.003-0 0.006-0 0.008v-0 0.276c-0.003 0.249-0.204 0.449-0.452 0.453h-0z"></path>
<path fill="#2d2d2d" style="fill: var(--color1, #2d2d2d)" d="M26.214 10.863h-3.424c-0.84-0.015-1.516-0.7-1.516-1.543 0-0.011 0-0.022 0-0.033l-0 0.002v-3.562c0.001-0.201 0.12-0.373 0.292-0.451l0.003-0.001c0.051-0.021 0.11-0.033 0.171-0.033 0.135 0 0.256 0.058 0.34 0.151l0 0 4.487 4.664c0.086 0.087 0.138 0.207 0.138 0.339 0 0.070-0.015 0.136-0.041 0.196l0.001-0.003c-0.087 0.164-0.257 0.275-0.453 0.276h-0zM21.943 6.239v3.050c-0 0.008-0 0.018-0 0.028 0 0.463 0.367 0.84 0.825 0.857l0.002 0h2.952z"></path>
<path fill="none" stroke="#000" stroke-width="0.3936" stroke-miterlimit="4" stroke-linecap="round" stroke-linejoin="round" style="stroke: var(--color4, #000)" d="M6.691 0.197c0 0.846-0.571 1.515-1.279 1.515 0.708 0 1.279 0.669 1.279 1.515 0-0.846 0.571-1.515 1.279-1.515-0.708 0-1.279-0.669-1.279-1.515z"></path>
<path fill="#2d2d2d" style="fill: var(--color1, #2d2d2d)" d="M24.954 30.524h-17.515c-1.058-0.015-1.909-0.876-1.909-1.936 0-0.011 0-0.022 0-0.033l-0 0.002v-21.51c-0-0.005-0-0.012-0-0.018 0-1.063 0.85-1.927 1.907-1.95l0.002-0h14.032c0.26 0.003 0.469 0.213 0.472 0.472v3.877c-0 0.006-0 0.013-0 0.020 0 0.406 0.324 0.737 0.727 0.748l0.001 0h3.739c0.26 0.003 0.469 0.213 0.472 0.472v17.87c0 0.006 0 0.013 0 0.020 0 1.073-0.859 1.946-1.927 1.968l-0.002 0zM7.439 5.747c-0.678 0.017-1.22 0.571-1.22 1.251 0 0.010 0 0.020 0 0.029l-0-0.001v21.51c-0 0.008-0 0.018-0 0.028 0 0.68 0.543 1.234 1.219 1.251l0.002 0h17.515c0.678-0.017 1.22-0.571 1.22-1.251 0-0.010-0-0.020-0-0.029l0 0.001v-17.653h-3.523c-0.785-0.009-1.417-0.647-1.417-1.433 0-0.008 0-0.017 0-0.025l-0 0.001v-3.68z"></path>
<path fill="#c6c6c6" style="fill: var(--color2, #c6c6c6)" d="M21.786 25.506l1.594 1.633z"></path>
<path fill="#2d2d2d" style="fill: var(--color1, #2d2d2d)" d="M23.38 27.572c-0.005 0-0.010 0-0.015 0-0.12 0-0.227-0.053-0.299-0.138l-0-0.001-1.574-1.633c-0.072-0.077-0.117-0.181-0.117-0.295 0-0.238 0.193-0.432 0.432-0.432 0.124 0 0.236 0.052 0.315 0.136l0 0 1.574 1.633c0.076 0.076 0.123 0.18 0.123 0.296 0 0.125-0.055 0.237-0.142 0.314l-0 0c-0.077 0.073-0.181 0.118-0.295 0.118h-0z"></path>
<path fill="#c6c6c6" style="fill: var(--color2, #c6c6c6)" d="M23.419 27.159l3.247 3.385z"></path>
<path fill="#2d2d2d" style="fill: var(--color1, #2d2d2d)" d="M26.667 31.469c-0.261-0.003-0.496-0.107-0.669-0.276l0 0-3.247-3.385c-0.148-0.163-0.239-0.38-0.239-0.618 0-0.508 0.411-0.919 0.919-0.919 0.248 0 0.473 0.098 0.638 0.258l-0-0 3.247 3.365c0.158 0.166 0.256 0.391 0.256 0.639 0 0.258-0.105 0.491-0.275 0.659l-0 0c-0.156 0.17-0.378 0.276-0.626 0.276-0.001 0-0.003 0-0.004 0h0z"></path>
<path fill="#2d2d2d" style="fill: var(--color1, #2d2d2d)" d="M18.558 27.041c-3.011 0-5.451-2.519-5.451-5.629s2.44-5.629 5.451-5.629 5.451 2.519 5.451 5.629-2.46 5.629-5.451 5.629zM18.558 16.453c-2.617 0-4.763 2.224-4.763 4.94s2.125 4.94 4.763 4.94 4.763-2.224 4.763-4.94-2.145-4.94-4.763-4.94z"></path>
<path fill="#2d2d2d" style="fill: var(--color1, #2d2d2d)" d="M20.212 18.736c-0.065-0.004-0.125-0.018-0.181-0.041l0.004 0.001c-0.295-0.176-0.639-0.306-1.005-0.371l-0.018-0.003c-0.161-0.021-0.284-0.157-0.284-0.322 0-0.025 0.003-0.050 0.008-0.074l-0 0.002c0.033-0.161 0.173-0.279 0.341-0.279 0.018 0 0.036 0.001 0.054 0.004l-0.002-0c0.473 0.077 0.897 0.235 1.276 0.462l-0.016-0.009c0.1 0.063 0.165 0.172 0.165 0.297 0 0.064-0.017 0.125-0.048 0.177l0.001-0.002c-0.067 0.093-0.174 0.154-0.295 0.157h-0zM15.213 21.747c-0.001 0-0.001 0-0.002 0-0.184 0-0.333-0.149-0.333-0.333 0-0.001 0-0.001 0-0.002v0c-0-0.006-0-0.013-0-0.021 0-1.608 0.991-2.984 2.395-3.552l0.026-0.009c0.032-0.011 0.068-0.017 0.106-0.017 0.186 0 0.337 0.151 0.337 0.337 0 0.139-0.084 0.258-0.204 0.31l-0.002 0.001c-0.72 0.282-1.292 0.81-1.626 1.478l-0.008 0.018c-0.21 0.419-0.334 0.913-0.335 1.436v0c0 0.004 0 0.009 0 0.014 0 0.188-0.152 0.34-0.34 0.34-0.005 0-0.010-0-0.015-0l0.001 0z"></path>
<path fill="#2d2d2d" style="fill: var(--color1, #2d2d2d)" d="M18.263 12.399h-10.549c-0.161-0.004-0.291-0.134-0.295-0.295v-0c0.004-0.161 0.134-0.291 0.295-0.295h10.549c0.161 0.004 0.291 0.134 0.295 0.295v0c-0.004 0.161-0.134 0.291-0.295 0.295h-0z"></path>
<path fill="none" stroke="#000" stroke-width="0.3936" stroke-miterlimit="4" stroke-linecap="round" stroke-linejoin="round" style="stroke: var(--color4, #000)" d="M1.437 31.685h-0.216c-0.002-0-0.004-0-0.006-0-0.029 0-0.053 0.024-0.053 0.053 0 0.002 0 0.004 0 0.007l-0-0c0.002 0.032 0.027 0.057 0.059 0.059h0.217c0.002 0 0.004 0 0.006 0 0.029 0 0.053-0.024 0.053-0.053 0-0.002-0-0.004-0-0.007l0 0c0.020-0.039-0.020-0.059-0.059-0.059z"></path>
<path fill="none" stroke="#000" stroke-width="0.3936" stroke-miterlimit="4" stroke-linecap="round" stroke-linejoin="round" style="stroke: var(--color4, #000)" d="M0.472 31.685h-0.216c-0.002-0-0.004-0-0.006-0-0.029 0-0.053 0.024-0.053 0.053 0 0.002 0 0.004 0 0.007l-0-0c0.002 0.032 0.027 0.057 0.059 0.059h0.217c0.002 0 0.004 0 0.006 0 0.029 0 0.053-0.024 0.053-0.053 0-0.002-0-0.004-0-0.007l0 0c0-0.002 0-0.004 0-0.006 0-0.029-0.024-0.053-0.053-0.053-0.002 0-0.004 0-0.007 0l0-0z"></path>
<path fill="none" stroke="#000" stroke-width="0.3936" stroke-miterlimit="4" stroke-linecap="round" stroke-linejoin="round" style="stroke: var(--color4, #000)" d="M15.095 31.685h-12.871c-0.002-0-0.004-0-0.006-0-0.029 0-0.053 0.024-0.053 0.053 0 0.002 0 0.004 0 0.007l-0-0c-0 0.002-0 0.004-0 0.006 0 0.029 0.024 0.053 0.053 0.053 0.002 0 0.004-0 0.007-0l-0 0h12.871c0.002 0 0.004 0 0.006 0 0.029 0 0.053-0.024 0.053-0.053 0-0.002-0-0.004-0-0.007l0 0c0-0.002 0-0.004 0-0.006 0-0.029-0.024-0.053-0.053-0.053-0.002 0-0.004 0-0.007 0l0-0z"></path>
</symbol>
<symbol id="icon-tishi" viewBox="0 0 32 32">
<title>tishi</title>
<path d="M16 32c-8.837 0-16-7.163-16-16s7.163-16 16-16c8.837 0 16 7.163 16 16v0c0 8.837-7.163 16-16 16v0zM16 2.285c-7.574 0-13.714 6.14-13.714 13.714s6.14 13.714 13.714 13.714c7.573 0 13.713-6.139 13.714-13.712v-0c0-0 0-0.001 0-0.002 0-7.574-6.14-13.714-13.714-13.714v0zM14.858 22.858h2.286v2.285h-2.286zM16.571 20.571h-1.142c-0.315 0-0.571-0.256-0.571-0.571v0-12.573c0-0.315 0.256-0.571 0.571-0.571v0h1.142c0.315 0 0.571 0.256 0.571 0.571v0 12.573c0 0.315-0.256 0.571-0.571 0.571v0z"></path>
</symbol>
<symbol id="icon-touxiang" viewBox="0 0 31 32">
<title>touxiang</title>
<path d="M6.156 15.174c-0.004-0-0.009-0-0.014-0-0.069 0-0.135 0.013-0.196 0.035l0.004-0.001c0.068-0.021 0.146-0.034 0.226-0.034h0zM29.865 24.62c0.003-0.047 0.009-0.092 0.019-0.134l-0.001 0.005c-0.012 0.033-0.019 0.072-0.019 0.112 0 0.006 0 0.012 0 0.018l-0-0.001zM31.452 7.169v-0.020s-0.014 0.011-0.014 0.020zM29.865 7.169s0-0.018 0-0.029zM30.819 30.905c-0.242-1.773-0.75-3.378-1.486-4.849l0.040 0.089q-0.227-0.44-0.453-0.864v0c-0.744-1.246-1.594-2.322-2.565-3.275l-0.003-0.002q-0.326-0.322-0.68-0.626c-1.565-1.38-3.429-2.464-5.477-3.141l-0.112-0.032c3.012-1.687 5.014-4.857 5.014-8.496 0-5.308-4.262-9.621-9.55-9.704l-0.008-0h-0.242c-5.296 0.081-9.558 4.394-9.558 9.702 0 2.679 1.085 5.104 2.84 6.859l-0-0c0.629 0.629 1.344 1.173 2.125 1.613l0.049 0.025c-2.161 0.709-4.024 1.793-5.606 3.188l0.017-0.015q-0.347 0.304-0.68 0.626c-0.974 0.955-1.824 2.030-2.528 3.203l-0.040 0.072q-0.242 0.424-0.453 0.864c-0.696 1.382-1.204 2.987-1.437 4.679l-0.009 0.080c-0.006 0.039-0.009 0.084-0.009 0.13 0 0.488 0.36 0.891 0.828 0.96l0.005 0.001c0.020 0.001 0.043 0.002 0.066 0.002s0.046-0.001 0.069-0.002l-0.003 0c0.017 0.001 0.037 0.002 0.058 0.002s0.040-0.001 0.061-0.002l-0.003 0c0.394-0.087 0.694-0.405 0.754-0.802l0.001-0.005c0.483-3.141 1.925-5.883 4.012-7.981l-0.001 0.001c2.427-2.501 5.807-4.067 9.552-4.111l0.008-0h0.020c3.746 0.051 7.117 1.615 9.536 4.108l0.003 0.003c2.087 2.098 3.529 4.839 4.001 7.9l0.010 0.080c0.061 0.401 0.36 0.719 0.746 0.806l0.006 0.001c0.017 0.001 0.037 0.002 0.058 0.002s0.041-0.001 0.061-0.002l-0.003 0c0.020 0.001 0.043 0.002 0.066 0.002s0.046-0.001 0.069-0.002l-0.003 0c0.478-0.065 0.843-0.471 0.843-0.962 0-0.046-0.003-0.091-0.009-0.136l0.001 0.005zM15.394 17.468h-0.048c-3.626-0.027-6.849-2.543-7.731-5.918 0-0.036-0.020-0.075-0.029-0.111-0.134-0.519-0.211-1.115-0.211-1.729 0-0.002 0-0.003 0-0.005v0c0-0.621 0.077-1.224 0.222-1.801l-0.011 0.051c0-0.039 0.018-0.075 0.029-0.113 0.886-3.459 4.145-6.208 7.79-6.208h0.041c3.644 0 6.904 2.749 7.79 6.208 0 0.039 0.020 0.075 0.029 0.113 0.134 0.525 0.21 1.128 0.211 1.75v0c0 0.001 0 0.003 0 0.005 0 0.614-0.077 1.21-0.221 1.779l0.011-0.050c0 0.036-0.018 0.075-0.029 0.111-0.882 3.375-4.111 5.893-7.731 5.918z"></path>
</symbol>
<symbol id="icon-weixuanzhong" viewBox="0 0 32 32">
<title>weixuanzhong</title>
<path d="M16 32c-8.837 0-16-7.163-16-16s7.163-16 16-16c8.837 0 16 7.163 16 16v0c0 8.837-7.163 16-16 16v0zM16 1.333c-8.1 0-14.667 6.567-14.667 14.667s6.567 14.667 14.667 14.667c8.1 0 14.667-6.567 14.667-14.667v0c0-8.1-6.567-14.667-14.667-14.667v0z"></path>
</symbol>
<symbol id="icon-xialaliebiao" viewBox="0 0 51 32">
<title>xialaliebiao</title>
<path d="M25.656 32c-0.319-0-0.622-0.068-0.895-0.191l0.014 0.006-23.465-10.349c-0.843-0.321-1.432-1.122-1.432-2.061 0-1.215 0.985-2.2 2.2-2.2 0.363 0 0.705 0.088 1.007 0.243l-0.012-0.006 22.584 9.953 22.573-9.959c0.228-0.088 0.492-0.138 0.768-0.138 1.215 0 2.2 0.985 2.2 2.2 0 0.852-0.484 1.591-1.193 1.956l-0.012 0.006-23.445 10.341c-0.259 0.117-0.562 0.186-0.881 0.188h-0.001zM25.656 14.749c-0.319-0-0.622-0.068-0.895-0.191l0.014 0.006-23.465-10.35c-0.721-0.371-1.205-1.11-1.205-1.962 0-1.215 0.985-2.2 2.2-2.2 0.276 0 0.54 0.051 0.783 0.143l-0.015-0.005 22.584 9.956 22.573-9.959c0.228-0.088 0.492-0.138 0.768-0.138 1.215 0 2.2 0.985 2.2 2.2 0 0.852-0.484 1.591-1.193 1.956l-0.012 0.006-23.445 10.352c-0.259 0.118-0.562 0.187-0.881 0.188h-0z"></path>
</symbol>
<symbol id="icon-xiangshangshouqi" viewBox="0 0 51 32">
<title>xiangshangshouqi</title>
<path d="M25.656 0c0.319 0.002 0.622 0.071 0.895 0.194l-0.014-0.006 23.468 10.35c0.721 0.371 1.205 1.11 1.205 1.962 0 1.215-0.985 2.2-2.2 2.2-0.276 0-0.54-0.051-0.783-0.143l0.015 0.005-22.587-9.956-22.57 9.956c-0.289 0.15-0.632 0.238-0.994 0.238-1.215 0-2.2-0.985-2.2-2.2 0-0.939 0.589-1.741 1.417-2.056l0.015-0.005 23.445-10.35c0.259-0.117 0.562-0.185 0.881-0.185v0zM25.656 17.251c0.319 0.001 0.622 0.070 0.895 0.194l-0.014-0.006 23.46 10.349c0.721 0.371 1.205 1.11 1.205 1.962 0 1.215-0.985 2.2-2.2 2.2-0.276 0-0.54-0.051-0.783-0.143l0.015 0.005-22.579-9.956-22.57 9.944c-0.228 0.088-0.492 0.138-0.768 0.138-1.215 0-2.2-0.985-2.2-2.2 0-0.852 0.484-1.591 1.193-1.956l0.012-0.006 23.46-10.35c0.259-0.117 0.562-0.185 0.881-0.185h0z"></path>
</symbol>
<symbol id="icon-xianshi" viewBox="0 0 38 32">
<title>xianshi</title>
<path d="M38.341 18.831l-0.345-0.637c-1.423-2.514-3.217-4.642-5.334-6.391l-0.038-0.031 4.088-2.569c0.229-0.158 0.377-0.419 0.377-0.714 0-0.477-0.387-0.864-0.864-0.864-0.156 0-0.303 0.042-0.43 0.114l0.004-0.002-4.631 2.908c-0.217-0.155-0.433-0.305-0.656-0.455-1.696-1.163-3.652-2.127-5.742-2.79l-0.158-0.043 2.007-6.215c0.031-0.085 0.049-0.183 0.049-0.285 0-0.476-0.386-0.862-0.862-0.862-0.387 0-0.714 0.255-0.823 0.606l-0.002 0.006-2.047 6.33c-1.117-0.251-2.401-0.394-3.718-0.394s-2.6 0.144-3.835 0.416l0.118-0.022-2.039-6.33c-0.111-0.357-0.438-0.612-0.825-0.612-0.476 0-0.862 0.386-0.862 0.862 0 0.102 0.018 0.2 0.050 0.291l-0.002-0.006 2.012 6.223c-2.243 0.709-4.194 1.673-5.962 2.885l0.076-0.049c-0.222 0.147-0.439 0.3-0.656 0.455l-4.642-2.919c-0.13-0.084-0.289-0.134-0.46-0.134-0.304 0-0.572 0.159-0.723 0.398l-0.002 0.004c-0.083 0.131-0.132 0.29-0.132 0.46 0 0.305 0.158 0.574 0.396 0.728l0.003 0.002 4.091 2.569c-1.834 1.526-3.4 3.29-4.673 5.261l-0.055 0.090q-0.345 0.535-0.647 1.097l-0.123 0.225-0.195 0.364c-0.075 0.131-0.12 0.288-0.12 0.455s0.044 0.324 0.122 0.459l-0.002-0.005 0.359 0.626c1.64 3.023 4.281 5.86 7.46 7.987 3.575 2.408 7.492 3.666 11.288 3.666s7.711-1.268 11.288-3.666c3.173-2.127 5.83-4.966 7.492-7.995l0.345-0.637c0.061-0.12 0.097-0.261 0.097-0.411 0-0.166-0.044-0.321-0.121-0.455l0.002 0.005zM36.399 19.462c-2.9 5.322-9.728 10.702-17.172 10.702s-14.272-5.386-17.153-10.702v-0.016l-0.104-0.182 0.104-0.182v-0.016q0.268-0.471 0.551-0.942c3.16-4.987 9.611-9.742 16.602-9.742 7.454 0 14.272 5.386 17.153 10.702v0.016l0.078 0.136h0.024l0.013 0.027zM19.227 12.329c-0.010-0-0.023-0-0.035-0-3.833 0-6.94 3.107-6.94 6.94s3.107 6.94 6.94 6.94c3.833 0 6.94-3.107 6.94-6.94v0c0-0.006 0-0.012 0-0.019 0-3.817-3.090-6.913-6.905-6.922h-0.001zM19.227 24.369c-0.008 0-0.017 0-0.027 0-2.822 0-5.11-2.288-5.11-5.11s2.288-5.11 5.11-5.11c2.822 0 5.11 2.288 5.11 5.11v0c0 0.005 0 0.010 0 0.016 0 2.811-2.274 5.092-5.083 5.102h-0.001z"></path>
</symbol>
<symbol id="icon-xiaoyingjiansuo" viewBox="0 0 31 32">
<title>xiaoyingjiansuo</title>
<path stroke-width="0.6772" stroke-miterlimit="10" stroke-linecap="butt" stroke-linejoin="miter" d="M8.179 1.363l1.744 6.62 5.57 2.015-5.537 2.066-1.676 6.654-1.744-6.637-5.553-1.998 5.537-2.066 1.659-6.654z"></path>
<path stroke-width="0.6772" stroke-miterlimit="10" stroke-linecap="butt" stroke-linejoin="miter" d="M22.232 2.701l2.167 4.385 4.199 0.61-3.589 2.252-0.22 4.893-2.167-4.402-4.199-0.593 3.589-2.252 0.22-4.893z"></path>
<path stroke-width="0.6772" stroke-miterlimit="10" stroke-linecap="butt" stroke-linejoin="miter" d="M6.215 20.614l0.982 2.794 2.455 0.66-2.303 1.084-0.491 2.912-0.965-2.794-2.472-0.66 2.32-1.084 0.474-2.912z"></path>
<path stroke-width="0.6772" stroke-miterlimit="10" stroke-linecap="butt" stroke-linejoin="miter" d="M12.717 17.431l3.285-3.285c0.329-0.33 0.784-0.534 1.287-0.534s0.958 0.204 1.287 0.534l0 0 4.927 4.961-5.841 5.841-4.961-4.961c-0.321-0.327-0.519-0.775-0.519-1.27 0-0.503 0.205-0.958 0.536-1.287l0-0z"></path>
<path stroke-width="0.6772" stroke-miterlimit="10" stroke-linecap="butt" stroke-linejoin="miter" d="M24.654 20.258l-5.841 5.841 5.029 5.029c0.329 0.33 0.784 0.534 1.287 0.534s0.958-0.204 1.287-0.534l3.285-3.285c0.33-0.329 0.534-0.784 0.534-1.287s-0.204-0.958-0.534-1.287l-0-0-5.046-5.012z"></path>
<path stroke-width="0.6772" stroke-miterlimit="10" stroke-linecap="butt" stroke-linejoin="miter" d="M13.384 18.969l4.131-4.13 4.13 4.131-4.131 4.13-4.13-4.131z"></path>
</symbol>
<symbol id="icon-xiayibu_shouye" viewBox="0 0 32 32">
<title>xiayibu_shouye</title>
<path d="M16 1.454c8.034 0 14.546 6.512 14.546 14.546s-6.512 14.546-14.546 14.546c-8.034 0-14.546-6.512-14.546-14.546v0c0.009-8.030 6.516-14.537 14.545-14.546h0.001zM16 0c-8.837 0-16 7.163-16 16s7.163 16 16 16c8.837 0 16-7.163 16-16v0c0-8.837-7.163-16-16-16v0z"></path>
<path d="M23.042 16.789c-0.18-0.002-0.345-0.069-0.471-0.179l0.001 0.001-9.203-7.746c-0.15-0.134-0.244-0.328-0.244-0.544 0-0.402 0.326-0.728 0.728-0.728 0.172 0 0.331 0.060 0.455 0.16l-0.001-0.001 9.206 7.754c0.157 0.134 0.257 0.333 0.257 0.555 0 0.401-0.325 0.727-0.726 0.728h-0z"></path>
<path d="M13.836 24.541c-0.401-0.001-0.726-0.326-0.726-0.728 0-0.222 0.099-0.42 0.256-0.554l0.001-0.001 9.206-7.752c0.121-0.093 0.275-0.15 0.442-0.15 0.402 0 0.728 0.326 0.728 0.728 0 0.211-0.090 0.401-0.233 0.534l-0 0-9.205 7.751c-0.125 0.107-0.289 0.172-0.468 0.172v0z"></path>
</symbol>
<symbol id="icon-xiayibu" viewBox="0 0 16 32">
<title>xiayibu</title>
<path d="M1.014 32c-0.027 0.004-0.058 0.006-0.090 0.006-0.197 0-0.377-0.078-0.508-0.205l0 0c-0.186-0.175-0.302-0.423-0.302-0.698s0.116-0.523 0.302-0.697l0.001-0 13.159-14.355-13.358-14.355c-0.399-0.399-0.199-0.997 0.199-1.396 0.175-0.186 0.423-0.302 0.698-0.302s0.523 0.116 0.697 0.302l0 0.001 13.956 14.953c0.186 0.175 0.302 0.423 0.302 0.698s-0.116 0.523-0.302 0.697l-0.001 0-13.956 14.953c-0.212 0.203-0.485 0.346-0.789 0.397l-0.009 0.001z"></path>
</symbol>
<symbol id="icon-xuanzhong" viewBox="0 0 32 32">
<title>xuanzhong</title>
<path d="M16 32.002c-8.836 0-15.998-7.163-15.998-15.998s7.163-15.998 15.998-15.998c8.836 0 15.998 7.163 15.998 15.998v0c-0.013 8.831-7.168 15.986-15.997 15.998h-0.001zM16 1.062c-8.249 0-14.936 6.687-14.936 14.936s6.687 14.936 14.936 14.936c8.249 0 14.936-6.687 14.936-14.936v0c-0.010-8.245-6.691-14.927-14.935-14.936h-0.001z"></path>
<path d="M9.95 15.869c0 3.61 2.927 6.537 6.537 6.537s6.537-2.927 6.537-6.537c0-3.61-2.927-6.537-6.537-6.537v0c-3.61 0-6.537 2.927-6.537 6.537v0z"></path>
</symbol>
<symbol id="icon-zhengque" viewBox="0 0 32 32">
<title>zhengque</title>
<path d="M16.001 32.002c-0.008 0-0.018 0-0.028 0-2.235 0-4.362-0.464-6.289-1.3l0.102 0.040c-3.849-1.67-6.856-4.677-8.485-8.421l-0.040-0.104c-0.799-1.834-1.264-3.97-1.264-6.215s0.465-4.381 1.303-6.318l-0.040 0.103c1.669-3.849 4.676-6.856 8.421-8.485l0.104-0.040c1.834-0.798 3.97-1.263 6.215-1.263s4.381 0.465 6.318 1.303l-0.103-0.040c3.849 1.669 6.856 4.676 8.485 8.421l0.040 0.104c0.798 1.834 1.263 3.97 1.263 6.215s-0.465 4.381-1.303 6.318l0.040-0.103c-1.67 3.849-4.677 6.856-8.421 8.485l-0.104 0.040c-1.825 0.797-3.951 1.261-6.186 1.261-0.010 0-0.021 0-0.031-0h0.002zM16.001 2.002c-0.010-0-0.021-0-0.032-0-1.951 0-3.808 0.405-5.492 1.135l0.089-0.034c-3.369 1.463-6 4.096-7.427 7.373l-0.035 0.091c-0.698 1.603-1.104 3.471-1.104 5.434s0.406 3.831 1.139 5.524l-0.035-0.090c1.463 3.368 4.094 6 7.371 7.427l0.091 0.035c1.603 0.698 3.471 1.104 5.434 1.104s3.831-0.406 5.524-1.139l-0.090 0.035c3.368-1.463 6-4.094 7.427-7.371l0.035-0.091c0.698-1.603 1.104-3.471 1.104-5.434s-0.406-3.831-1.139-5.524l0.035 0.090c-1.463-3.368-4.094-6-7.371-7.427l-0.091-0.035c-1.597-0.698-3.458-1.104-5.414-1.104-0.007 0-0.014 0-0.022 0h0.001zM14.124 21.561c-0.211-0.002-0.402-0.086-0.544-0.22l0 0-5.676-5.245c-0.14-0.144-0.226-0.341-0.226-0.558 0-0.444 0.36-0.803 0.803-0.803 0.195 0 0.374 0.070 0.513 0.185l-0.001-0.001 5.111 4.719 9.075-9.071c0.14-0.123 0.325-0.198 0.528-0.198 0.444 0 0.803 0.36 0.803 0.803 0 0.203-0.075 0.388-0.199 0.529l0.001-0.001-9.621 9.625c-0.145 0.144-0.344 0.233-0.565 0.233-0.001 0-0.002 0-0.003 0h0z"></path>
</symbol>
</defs>
</svg>
